<svg xmlns="http://www.w3.org/2000/svg" width="181" height="181" fill="none" viewBox="0 0 181 181"><ellipse cx="10.976" cy="11.421" fill="#fff" rx="10.976" ry="11.421" transform="matrix(1 0 -0.000269921 1 0.228516 0.784912)"/><ellipse cx="10.571" cy="11" fill="#fff" rx="10.571" ry="11" transform="matrix(1 0 -0.000269921 1 39.7402 0.784912)"/><ellipse cx="9.61" cy="10" fill="#fff" rx="9.61" ry="10" transform="matrix(1 0 -0.000269921 1 79.2539 0.784912)"/><ellipse cx="8.649" cy="9" fill="#fff" rx="8.649" ry="9" transform="matrix(1 0 -0.000269921 1 118.766 0.784668)"/><ellipse cx="7.207" cy="7.5" fill="#fff" rx="7.207" ry="7.5" transform="matrix(1 0 -0.000269921 1 158.277 0.784668)"/><ellipse cx="10.976" cy="11.421" fill="#fff" rx="10.976" ry="11.421" transform="matrix(1 0 -0.000269921 1 0.21875 40.0723)"/><ellipse cx="11.532" cy="12" fill="#fff" rx="11.532" ry="12" transform="matrix(1 0 -0.000269921 1 39.7305 40.0723)"/><ellipse cx="10.571" cy="11" fill="#fff" rx="10.571" ry="11" transform="matrix(1 0 -0.000269921 1 79.2441 40.0723)"/><ellipse cx="9.61" cy="10" fill="#fff" rx="9.61" ry="10" transform="matrix(1 0 -0.000269921 1 118.756 40.072)"/><ellipse cx="8.649" cy="9" fill="#fff" rx="8.649" ry="9" transform="matrix(1 0 -0.000269921 1 158.268 40.072)"/><ellipse cx="10.976" cy="11.421" fill="#fff" rx="10.976" ry="11.421" transform="matrix(1 0 -0.000269921 1 0.207031 79.3633)"/><ellipse cx="10.976" cy="11.421" fill="#fff" rx="10.976" ry="11.421" transform="matrix(1 0 -0.000269921 1 39.7188 79.3633)"/><ellipse cx="11.532" cy="12" fill="#fff" rx="11.532" ry="12" transform="matrix(1 0 -0.000269921 1 79.2324 79.3633)"/><ellipse cx="10.571" cy="11" fill="#fff" rx="10.571" ry="11" transform="matrix(1 0 -0.000269921 1 118.744 79.363)"/><ellipse cx="9.61" cy="10" fill="#fff" rx="9.61" ry="10" transform="matrix(1 0 -0.000269921 1 158.256 79.363)"/><ellipse cx="10.976" cy="11.421" fill="#fff" rx="10.976" ry="11.421" transform="matrix(1 0 -0.000269921 1 0.197266 118.652)"/><ellipse cx="10.976" cy="11.421" fill="#fff" rx="10.976" ry="11.421" transform="matrix(1 0 -0.000269921 1 39.709 118.652)"/><ellipse cx="10.976" cy="11.421" fill="#fff" rx="10.976" ry="11.421" transform="matrix(1 0 -0.000269921 1 79.2227 118.652)"/><ellipse cx="11.532" cy="12" fill="#fff" rx="11.532" ry="12" transform="matrix(1 0 -0.000269921 1 118.734 118.652)"/><ellipse cx="10.571" cy="11" fill="#fff" rx="10.571" ry="11" transform="matrix(1 0 -0.000269921 1 158.246 118.652)"/><ellipse cx="10.976" cy="11.421" fill="#fff" rx="10.976" ry="11.421" transform="matrix(1 0 -0.000269921 1 0.185547 157.943)"/><ellipse cx="10.976" cy="11.421" fill="#fff" rx="10.976" ry="11.421" transform="matrix(1 0 -0.000269921 1 39.6973 157.943)"/><ellipse cx="10.976" cy="11.421" fill="#fff" rx="10.976" ry="11.421" transform="matrix(1 0 -0.000269921 1 79.2109 157.943)"/><ellipse cx="10.976" cy="11.421" fill="#fff" rx="10.976" ry="11.421" transform="matrix(1 0 -0.000269921 1 118.723 157.943)"/><ellipse cx="10.976" cy="11.421" fill="#fff" rx="10.976" ry="11.421" transform="matrix(1 0 -0.000269921 1 158.234 157.943)"/></svg>